<svg xmlns="http://www.w3.org/2000/svg" width="143.191" height="118.662" viewBox="0 0 143.191 118.662">
  <path id="Image-Gallery-SVG-po3dfdf" d="M62.622,120.472H140a3.174,3.174,0,0,0,3.191-3.291V24.745A3.235,3.235,0,0,0,140,21.454H123.448V5.1a3.174,3.174,0,0,0-3.191-3.291H3.291A3.2,3.2,0,0,0,0,5.1V97.537a3.256,3.256,0,0,0,3.291,3.291H19.644v16.353a3.256,3.256,0,0,0,3.291,3.291H56.04M116.967,8.292v80.87l-35.8-38.69a3.258,3.258,0,0,0-4.786,0L65.114,62.637,38.49,33.819a3.258,3.258,0,0,0-4.786,0L6.581,63.135V8.292ZM78.776,57.451l34,36.8H44.772ZM6.581,72.808,36.1,40.8l24.53,26.624L35.9,94.247H6.581Zm19.644,28.02h94.032l1.2-.2.3-.2.6-.5.3-.2.6-.9v-.1l.2-1v-69.7h13.163V113.99H26.225Z" transform="translate(0 -1.81)"/>
</svg>
