<?xml version="1.0" encoding="utf-8"?>
<!-- Uploaded to: SVG Repo, www.svgrepo.com, Generator: SVG Repo Mixer Tools -->
<svg width="800px" height="800px" viewBox="0 0 1024 1024" fill="#000000" class="icon"  version="1.1" xmlns="http://www.w3.org/2000/svg"><path d="M513.147 584.708c-15.947 0-39.468-1.747-61.040-10.031l-172.596-66.501h-84.542v103.565c0 31.84 23.684 67.975 52.884 80.663l208.987 90.967c29.2 12.688 76.605 12.743 105.841 0.127l211.263-91.222c29.218-12.615 52.921-48.697 52.921-80.537v-103.565h-93.298l-152.954 64.48c-18.386 7.773-42.38 12.051-67.466 12.051zM46.313 372.991l416.19 160.363c29.728 11.433 77.605 10.686 106.951-1.693l397.458-167.536v247.18l-24.558 81.938h71.015l-25.413-82.794v-256.319h-0.71c17.167-11.833 13.162-26.596-12.252-35.681l-404.357-143.888c-30.001-10.704-78.479-10.25-108.299 0.946l-415.844 156.449c-29.819 11.214-29.891 29.6-0.182 41.033z" /></svg>